<svg xmlns="http://www.w3.org/2000/svg" viewBox="0 0 512 512">
  <rect width="512" height="512" fill="#FFFFFF"/>
  <g transform="translate(86, 50) scale(1.75)" fill="#E72628">
    <path d="M38.0803 4.56968C38.5494 1.92607 40.8468 0 43.5308 0H117.5C120.948 0 123.557 3.11912 122.949 6.51423L111.047 72.9656C110.574 75.6051 108.278 77.5266 105.598 77.5266H31.7379C28.2935 77.5266 25.6853 74.4136 26.2874 71.021L38.0803 4.56968Z"/>
    <path d="M111.438 82.1029C111.904 79.4562 114.203 77.5266 116.89 77.5266H187.869C191.317 77.5266 193.926 80.6449 193.318 84.0396L180.44 156.029C179.968 158.669 177.672 160.591 174.991 160.591L104.205 160.591C100.763 160.591 98.1556 157.482 98.753 154.092L111.438 82.1029Z"/>
    <path d="M11.4917 165.152C11.9644 162.512 14.26 160.591 16.9407 160.591H90.988C94.4374 160.591 97.0468 163.712 96.4364 167.108L84.9895 230.791C84.5153 233.429 82.2205 235.349 79.5411 235.349H5.5373C2.08938 235.349 -0.519655 232.23 0.088285 228.835L11.4917 165.152Z"/>
  </g>
</svg>
